<?xml version="1.0" standalone="no"?>
<!DOCTYPE svg PUBLIC "-//W3C//DTD SVG 20010904//EN"
 "http://www.w3.org/TR/2001/REC-SVG-20010904/DTD/svg10.dtd">
<svg version="1.0" xmlns="http://www.w3.org/2000/svg"
 width="700.000000pt" height="700.000000pt" viewBox="0 0 700.000000 700.000000"
 preserveAspectRatio="xMidYMid meet">
<metadata>
Created by potrace 1.11, written by Peter Selinger 2001-2013
</metadata>
<g transform="translate(0.000000,700.000000) scale(0.100000,-0.100000)"
fill="#000000" stroke="none">
<path d="M81 6417 c-16 -4 -41 -21 -55 -38 l-26 -31 0 -2525 c0 -2274 2 -2528
16 -2558 31 -66 -260 -61 3491 -60 2999 0 3421 2 3441 15 56 37 52 -139 52
2597 0 1978 -3 2523 -13 2542 -6 13 -25 33 -40 45 l-28 21 -3405 0 c-1872 0
-3417 -3 -3433 -8z"/>
</g>
</svg>
